<svg id="a2636ab8-4750-45e6-9e1d-7362ac7157c1" data-name="Capa 1" xmlns="http://www.w3.org/2000/svg" width="413.7847" height="560.5923" viewBox="0 0 413.7847 560.5923"><defs><style>.b44389e2-c017-4315-a2b7-71de0f58c691{fill:#fff;}</style></defs><path class="b44389e2-c017-4315-a2b7-71de0f58c691" d="M432.2,112.1,323.9,81.2l-3.7-19.3a22.539,22.539,0,0,0-16-17.5L201.1,14.9a22.2281,22.2281,0,0,0-22.7,6.5L165,35.9,56.7,5A15.0074,15.0074,0,0,0,38.1,15.3L29.9,44.2A15.0074,15.0074,0,0,0,40.2,62.8L415.7,169.9a15.0074,15.0074,0,0,0,18.6-10.3l8.2-28.9A15.0074,15.0074,0,0,0,432.2,112.1ZM57.8,520a48.0328,48.0328,0,0,0,47.9,45H351.5a48.0328,48.0328,0,0,0,47.9-45l21.2-339H36.6Z" transform="translate(-29.3077 -4.4077)"/></svg>